<svg width="668" height="130" viewBox="0 0 668 130" fill="none" xmlns="http://www.w3.org/2000/svg">
<path d="M59.5 0C92.3609 0 119 26.6391 119 59.5C119 74.8778 113.166 88.8928 103.591 99.4531L88.0127 83.1719C93.6126 76.6879 97 68.2397 97 59C97 38.5655 80.4345 22 60 22C39.5655 22 23 38.5655 23 59C23 79.4345 39.5655 96 60 96C69.2761 96 77.7541 92.5857 84.248 86.9463L99.8369 103.238C89.2334 113.022 75.0652 119 59.5 119C26.6391 119 0 92.3609 0 59.5C0 26.6391 26.6391 0 59.5 0Z" fill="white"/>
<path d="M92.9283 96.0012L82.1898 106.74L115.723 118.796L92.9283 96.0012Z" fill="white"/>
<path d="M92.7943 88.533L103.533 77.7945L69.9998 65.7385L92.7943 88.533Z" fill="white"/>
<path d="M183.256 24.2727H203L195.259 70.8636C194.359 76.4034 192.252 81.1974 188.938 85.2457C185.647 89.2704 181.456 92.3835 176.366 94.5852C171.277 96.7633 165.618 97.8523 159.392 97.8523C153.118 97.8523 147.815 96.7633 143.483 94.5852C139.151 92.3835 136.002 89.2704 134.037 85.2457C132.096 81.1974 131.575 76.4034 132.474 70.8636L140.216 24.2727H159.96L152.503 69.1591C152.148 71.4081 152.325 73.4086 153.036 75.1605C153.746 76.9124 154.894 78.2973 156.48 79.3153C158.066 80.3097 159.984 80.8068 162.233 80.8068C164.506 80.8068 166.601 80.3097 168.518 79.3153C170.46 78.2973 172.07 76.9124 173.348 75.1605C174.626 73.4086 175.443 71.4081 175.798 69.1591L183.256 24.2727ZM232.128 24.2727L220.054 97H200.31L212.384 24.2727H232.128ZM304.767 51.5455H285.022C285.164 49.8646 285.07 48.3494 284.738 47C284.407 45.6506 283.839 44.4905 283.034 43.5199C282.229 42.5256 281.175 41.768 279.873 41.2472C278.571 40.7263 277.02 40.4659 275.221 40.4659C271.765 40.4659 268.675 41.33 265.953 43.0582C263.23 44.7628 260.969 47.2131 259.17 50.4091C257.371 53.5814 256.092 57.3693 255.335 61.7727C254.672 66.0341 254.648 69.5734 255.264 72.3906C255.903 75.2079 257.146 77.3149 258.993 78.7116C260.863 80.1084 263.289 80.8068 266.272 80.8068C268.261 80.8068 270.084 80.5701 271.741 80.0966C273.422 79.6231 274.913 78.9484 276.216 78.0724C277.541 77.1728 278.666 76.1075 279.589 74.8764C280.536 73.6217 281.258 72.2367 281.755 70.7216H301.642C300.884 73.7992 299.535 76.9479 297.593 80.1676C295.652 83.3636 293.143 86.3111 290.065 89.0099C286.987 91.6851 283.365 93.8513 279.199 95.5085C275.032 97.1657 270.344 97.9943 265.136 97.9943C258.318 97.9943 252.435 96.5028 247.487 93.5199C242.563 90.5369 238.988 86.1809 236.762 80.4517C234.561 74.7225 234.123 67.7386 235.449 59.5C236.774 51.5455 239.39 44.8812 243.297 39.5071C247.203 34.133 251.949 30.0848 257.537 27.3622C263.124 24.6397 269.066 23.2784 275.363 23.2784C280.122 23.2784 284.383 23.9058 288.147 25.1605C291.935 26.4152 295.119 28.25 297.7 30.6648C300.304 33.0559 302.222 36.0033 303.453 39.5071C304.684 43.0109 305.122 47.0237 304.767 51.5455ZM306.267 97L318.341 24.2727H338.085L333.256 53.6761H334.25L360.955 24.2727H383.966L354.136 56.6591L372.46 97H348.881L337.233 69.7273L329.136 78.392L326.011 97H306.267ZM406.161 97H377.751L389.825 24.2727H417.098C424.579 24.2727 430.829 25.776 435.848 28.7827C440.867 31.7893 444.43 36.0862 446.537 41.6733C448.644 47.2604 449.058 53.9129 447.78 61.6307C446.549 69.0644 444.051 75.4209 440.287 80.7003C436.546 85.9796 431.764 90.0161 425.94 92.8097C420.14 95.6032 413.547 97 406.161 97ZM400.266 80.2386H407.439C411.037 80.2386 414.245 79.6113 417.062 78.3565C419.903 77.0781 422.271 74.9474 424.165 71.9645C426.082 68.9579 427.467 64.8504 428.32 59.642C429.125 54.7178 429.101 50.9181 428.249 48.2429C427.396 45.544 425.775 43.6738 423.384 42.6321C420.992 41.5668 417.903 41.0341 414.115 41.0341H406.8L400.266 80.2386ZM465.393 97H444.087L480.166 24.2727H507.155L519.087 97H497.78L490.678 44.3011H490.109L465.393 97ZM466.246 68.3068H506.303L503.746 83.0795H463.689L466.246 68.3068ZM570.702 47C570.915 44.6562 570.347 42.8215 568.998 41.4957C567.648 40.1463 565.376 39.4716 562.18 39.4716C560.144 39.4716 558.439 39.7083 557.066 40.1818C555.717 40.6553 554.663 41.3063 553.906 42.1349C553.172 42.9635 552.71 43.9223 552.521 45.0114C552.308 45.8636 552.319 46.6449 552.556 47.3551C552.817 48.0417 553.302 48.669 554.012 49.2372C554.746 49.8054 555.705 50.3144 556.888 50.7642C558.096 51.214 559.528 51.6165 561.185 51.9716L566.867 53.25C570.75 54.1023 574.005 55.2268 576.633 56.6236C579.284 57.9967 581.368 59.6302 582.883 61.5241C584.398 63.4181 585.392 65.5369 585.866 67.8807C586.363 70.2244 586.375 72.7812 585.901 75.5511C585.096 80.3333 583.238 84.3816 580.326 87.696C577.414 91.0104 573.614 93.5317 568.927 95.2599C564.239 96.9882 558.818 97.8523 552.663 97.8523C546.365 97.8523 541.015 96.9171 536.612 95.0469C532.232 93.1529 529.059 90.2647 527.094 86.3821C525.153 82.4759 524.68 77.4924 525.674 71.4318H544.424C544.14 73.6572 544.377 75.5275 545.134 77.0426C545.892 78.5578 547.111 79.706 548.792 80.4872C550.473 81.2685 552.568 81.6591 555.077 81.6591C557.208 81.6591 559.031 81.3987 560.546 80.8778C562.061 80.357 563.257 79.6349 564.133 78.7116C565.009 77.7884 565.541 76.7348 565.731 75.5511C565.92 74.4621 565.731 73.4915 565.163 72.6392C564.594 71.7869 563.565 71.0175 562.073 70.331C560.582 69.6444 558.534 69.017 555.93 68.4489L548.969 66.8864C542.79 65.4659 538.127 63.1222 534.978 59.8551C531.829 56.5881 530.717 52.1136 531.64 46.4318C532.397 41.7917 534.303 37.7434 537.357 34.2869C540.435 30.8068 544.341 28.108 549.076 26.1903C553.835 24.2491 559.102 23.2784 564.879 23.2784C570.75 23.2784 575.662 24.2609 579.616 26.2259C583.593 28.1908 586.446 30.9489 588.174 34.5C589.926 38.0511 590.399 42.2178 589.594 47H570.702ZM589.861 97L601.935 24.2727H621.679L616.991 52.6818H643.128L647.815 24.2727H667.56L655.486 97H635.741L640.429 68.5909H614.293L609.605 97H589.861Z" fill="white"/>
</svg>
