<svg width="119" height="130" viewBox="0 0 119 130" fill="none" xmlns="http://www.w3.org/2000/svg">
<path d="M59.5 0C92.3609 0 119 26.6391 119 59.5C119 74.8778 113.166 88.8928 103.591 99.4531L88.0127 83.1719C93.6126 76.6879 97 68.2397 97 59C97 38.5655 80.4345 22 60 22C39.5655 22 23 38.5655 23 59C23 79.4345 39.5655 96 60 96C69.2761 96 77.7541 92.5857 84.248 86.9463L99.8369 103.238C89.2334 113.022 75.0652 119 59.5 119C26.6391 119 0 92.3609 0 59.5C0 26.6391 26.6391 0 59.5 0Z" fill="black"/>
<path d="M92.9283 96.0012L82.1898 106.74L115.723 118.796L92.9283 96.0012Z" fill="black"/>
<path d="M92.7943 88.533L103.533 77.7945L69.9998 65.7385L92.7943 88.533Z" fill="black"/>
</svg>
